<?xml version="1.0" encoding="utf-8"?>
<!-- Generator: Adobe Illustrator 19.2.1, SVG Export Plug-In . SVG Version: 6.00 Build 0)  -->
<svg version="1.1" id="Capa_1" xmlns="http://www.w3.org/2000/svg" xmlns:xlink="http://www.w3.org/1999/xlink" x="0px" y="0px"
	 viewBox="0 0 696 532" style="enable-background:new 0 0 696 532;" xml:space="preserve">
<style type="text/css">
	.st0{fill:#ffffff;}
</style>
<g>
	<path class="st0" d="M455.4,119.9c0.2-2.2,0-4.4-0.8-6.5c-0.1-0.4-3.9-11-12.1-20.5c-7.2-8.3-18.1-16-32.5-23
		c-0.8-4.1-3.2-7.8-6.9-10.1c-1.9-1.2-9.4-5.5-27.6-9.8c-9.3-2.2-18.9-3.3-28.8-3.3c-39,0-69.6,17.6-70.8,18.4c-3.4,2-6,5.2-7.1,9.1
		l-4,13.5c-9,2.5-21.7,8.3-29.3,21.2c-0.7,1.2-1.3,2.6-2,4c-29.2,28.2-47.4,67.6-47.4,111.3c0,53,26.8,99.8,67.5,127.7l0.4,1.5
		l0.5,1.7l0.1,0.5l0,0.1l4.5,16.7c1.3,4.7,5.6,8.1,10.5,8.1c4.9,0,9.3-3.3,10.5-8.1l1.4-5.4c3.5,1.4,7,2.7,10.6,3.9
		c9.9,10.4,19.4,19.9,23.4,23.9l3.3,3.3c2.1,2.1,4.8,3.2,7.7,3.2c2.8,0,5.5-1.1,7.6-3.1l6-5.8l0.8-0.7l3.4,3.3l0.5,0.5l0,0l3,2.9
		c2,2,4.7,3.1,7.6,3.1c3.1,0,6.1-1.3,8.1-3.7l2.8-3.1l0,0l0.5-0.5l2-2.2l0.5-0.5c2.9-3.3,9.7-10.9,17.5-19.5
		c4.9-1.5,9.7-3.3,14.3-5.2l2.1,6.4c1.5,4.5,5.6,7.5,10.3,7.5c5.3,0,9.8-3.8,10.7-8.9l3-16.1c0.4-1.2,0.5-2.3,0.6-3.4
		c41-27.9,67.9-74.9,67.9-128C495.6,183.9,480.4,147.4,455.4,119.9z M482.6,190.9c-3.5-7.7-9.3-11.7-13.7-13.6
		c-3.3-1.5-6.9-2.3-10.7-2.5c-2.4-16.3-6.2-31.4-9.7-43.1c0.3-0.2,0.7-0.5,1-0.7c0.6-0.5,1.2-1,1.8-1.6
		C466.3,146.7,477.2,167.7,482.6,190.9z M227.4,132.8c-2.6,12.8-4.3,27.9-5.1,42c-3.4,0.3-6.6,1.1-9.6,2.5
		c-4.4,2-10.1,5.9-13.7,13.6C204.1,169.3,214,149.5,227.4,132.8z M195.3,224c0-4.8,0.2-9.5,0.7-14.1c0.1,2.8,0.4,5.8,1,9.1
		c3,16.8,10.1,28.9,21.2,35.8c2.2,1.4,4.6,2.5,7.1,3.4c0.1,3.7,0.1,7.4,0.2,10.8l0,13.9l0,4.8l0,0.5l0,0.6l0,0.2
		c0,7.7-0.1,14.1-0.1,18.4c0,2.9,1.1,5.7,3.1,7.8c2,2.1,4.9,3.2,7.8,3.2c2.9,0,5.5-1.1,7.5-3c2.2,7.8,4.3,15.7,6.1,22.1l0,0l0,0.1
		C216.6,310.7,195.3,269.8,195.3,224z M415.1,369.9c-0.2,0.9-0.9,1.4-1.7,1.4c-0.7,0-1.4-0.4-1.6-1.2l-2.4-7.4l-2.9-8.8l-0.1-0.4
		c-0.1-0.2-0.2-0.3-0.2-0.5l-2.9-9c-0.2-0.8-0.9-1.2-1.6-1.2c-0.4,0-0.9,0.2-1.2,0.5c-5.8,6.3-12.5,13.5-18.7,20.4
		c-3.9,4.4-7.7,8.5-10.9,12.1c-3.5,3.9-6.5,7.2-8.4,9.4h0c-0.2,0.2-0.3,0.4-0.5,0.6c-1.2,1.3-1.9,2.1-1.9,2.2c0,0,0,0,0,0
		c-1.4,1.5-2.5,2.8-3.2,3.6c-0.3,0.4-0.8,0.6-1.3,0.6c-0.4,0-0.9-0.2-1.2-0.5l-3.5-3.4c0,0,0,0,0,0l-8.6-8.3
		c-0.3-0.3-0.8-0.5-1.2-0.5c-0.4,0-0.9,0.2-1.2,0.5l-6,5.8h0l-6,5.8c-0.3,0.3-0.8,0.5-1.2,0.5c-0.4,0-0.8-0.2-1.2-0.5
		c-0.8-0.8-1.9-1.9-3.3-3.3c0,0,0,0,0,0c-2.2-2.2-6.9-6.8-12.6-12.7c-3.8-3.8-8-8.2-12.2-12.6c-6.7-7-13.4-14.3-18.4-20.3
		c-0.6,2-1.3,4.1-1.9,6.2l-1.4,5.2l-2.4,9.1l-1.8,6.8c-0.2,0.8-0.9,1.3-1.7,1.3c-0.7,0-1.4-0.4-1.7-1.3l-3-11.1l-1.6-6.1
		c0,0,0-0.1,0-0.1c-0.1-0.6-0.3-1.2-0.5-1.8l-0.9-3.4l0,0c-0.1-0.4-0.2-0.9-0.4-1.4c-3.8-14.5-9.3-34.5-13.6-49.2
		c-0.2-0.8-0.9-1.2-1.6-1.2c-0.6,0-1.1,0.3-1.5,0.8l-7.2,11.9c-0.3,0.6-0.9,0.8-1.5,0.8c-0.9,0-1.7-0.7-1.7-1.7
		c0-4.4,0.1-10.9,0.1-18.9c0,0,0-0.1,0-0.1c0,0,0-0.3,0-0.7c0-1.6,0-3.2,0-4.8c0,0,0,0,0,0c0-7,0-19.5-0.4-31.9
		c-3.5-0.5-7.4-1.7-11.2-4.1c-8.8-5.5-14.5-15.5-17-29.6c-3.7-20.7,3.7-28.6,10.5-31.7c2.8-1.2,5.8-1.8,8.8-1.8c2,0,3.9,0.2,5.8,0.6
		c0.8-27.3,4.5-52.9,9.9-66.3c0.7-1.8,1.5-3.5,2.3-4.8c7.1-12.1,20.2-16.4,27.7-17.9c0.6-0.1,1.1-0.6,1.3-1.2l3.1-10.5l2.1-7.1
		c0.5-1.6,1.5-2.9,2.9-3.7c1.5-0.9,29.8-17.1,66.2-17.1c8.5,0,17.5,0.9,26.7,3.1c17.5,4.2,24.1,8.2,24.8,8.7
		c2.4,1.5,3.5,4.4,2.7,7.2c-0.1,0.3-0.2,0.7-0.4,1c12.3,5.4,26.4,13.2,35.1,23.2c1.9,2.3,3.6,4.6,5,6.8c3.6,5.7,5.3,10.5,5.4,10.8
		c0.7,2,0.3,4.2-0.9,5.9c-0.3,0.5-0.7,0.9-1.2,1.3c-1.2,0.9-2.6,1.4-4,1.4c-0.2,0-0.4,0-0.6,0c-0.1,0-0.1,0-0.2,0
		c-1.1,0-1.9,1.1-1.5,2.2c4.7,14.7,10.3,35.4,12.7,57.3c2-0.4,4.1-0.7,6.1-0.7c3,0,6,0.5,8.8,1.8c6.8,3.1,14.2,11.1,10.5,31.7
		c-2.5,14.2-8.2,24.1-17,29.6c-3.7,2.3-7.5,3.5-10.8,4c0,3.6,0,7.3,0,11.1c0.1,8.5,0.2,17.3-0.6,26.8c0,0,0,0.1,0,0.1
		c-0.2,4.4-0.4,8.8-0.7,13.4c-0.1,1-0.9,1.6-1.7,1.6c-0.6,0-1.1-0.3-1.4-0.8l-5.4-8.9c-0.7-0.4-1.4-0.9-1.9-1.5
		c-1.9,6.2-4.1,13.2-6.4,20.4c-3.6,11.2-8.2,25.7-10,33.3c-0.3,1.5-0.6,2.7-0.7,3.6l0,0l-0.1,0.4c0,0.2,0,0.3,0,0.5
		c0,0.8-0.2,1.5-0.5,2.2l-1,5.4L415.1,369.9z M431.3,337.9c2.2-7.4,5-16.1,6.9-22c0.4-1.4,0.9-2.8,1.3-4.1c1.6,0.9,3.3,1.3,5.2,1.3
		c5.7,0,10.5-4.4,10.9-10.1c0.3-4.5,0.5-8.9,0.7-13.2l0-0.1c0.9-10,0.8-19,0.7-27.7c0-1.3,0-2.7,0-4c2.3-0.9,4.5-2,6.6-3.3
		c11.1-6.9,18.2-19,21.2-35.8c0.6-3.3,0.9-6.3,1-9.1c0.5,4.7,0.7,9.4,0.7,14.1C486.5,270.1,464.9,311.2,431.3,337.9z"/>
	<g>
		<path class="st0" d="M79.2,425.5h37.6v12.9H95v9.7h19.3v13.4H95v23.9H79.2V425.5z"/>
		<path class="st0" d="M162.9,485.4l-9.3-15.9h-9.8v15.9h-15.7v-60l24.3,0c9.7,0,18.9,5.7,21.9,14.9c3,9.1-0.1,17.8-6,23.3
			l12.7,21.7H162.9z M143.9,455.9h9.8c4.8,0,8.6-3.8,8.6-8.6s-3.8-8.6-8.6-8.6h-9.8V455.9z"/>
		<path class="st0" d="M186.4,485.4l28-60h7.1l28.2,60H234l-3.7-7.8h-24.5l-3.6,7.8H186.4z M211.9,464.3h12.2l-6.1-13.2L211.9,464.3
			z"/>
		<path class="st0" d="M301.9,485.4L273.6,457v28.4h-15.7v-60h6.4l28.4,28.3v-28.3h15.7v60H301.9z"/>
		<path class="st0" d="M319.2,425.4h47.2V441h-15.9v44.4h-15.7V441h-15.6V425.4z"/>
		<path class="st0" d="M377.3,425.5H393v60h-15.8V425.5z"/>
		<path class="st0" d="M439.6,442.4c-3.7-1.8-8.3-1.9-12.9,0.3c-5.4,2.6-8.5,8.9-7.4,14.8c1.8,9.2,10,13.9,18.4,11
			c3.9-1.3,6.7-3.8,8.3-7l14.1,6.9c-4.8,9.6-14.6,16.8-27.5,16.8c-9.3,0-18.3-4.7-23.6-12.3c-12.3-17.5-3.8-40,14.7-46.2
			c7.8-2.6,15.9-1.9,22.8,1.6L439.6,442.4z"/>
		<path class="st0" d="M462.2,485.4l28-60h1.8l28,60h-1.8l-9-19.3h-36.3l-9,19.3H462.2z M473.7,464.5h34.7l-17.4-37.2L473.7,464.5z"
			/>
		<path class="st0" d="M566.4,449.1c-2.4,7.3-9.9,11.8-17.6,11.8l-17.9,0v24.5h-1.5v-60h20.2C561.3,425.5,570.5,436.9,566.4,449.1z
			 M530.9,427v32.4h18.7c10.4-0.1,18.7-10.1,15.3-21.3c-2.1-6.8-9-11.1-16.1-11.1H530.9z"/>
		<path class="st0" d="M579.4,425.5h37.3v1.6h-35.8v26.9h33.3v1.6h-33.3v28.3h35.8v1.6h-37.3V425.5z"/>
	</g>
	<path class="st0" d="M239.9,230.5c0.3,5.1,0.5,10.5,0.6,15.3l0,0C240.4,241.1,240.3,235.6,239.9,230.5z"/>
	<path class="st0" d="M239.5,225.6c-0.3-3.2-0.7-6.1-1.2-8.5C238.8,219.4,239.2,222.4,239.5,225.6z"/>
	<path class="st0" d="M318.8,225.9c-4.4,0.8-8,4.5-8.9,8.9c-1.5,7.9,5.4,14.8,13.3,13.3c4.4-0.8,8-4.5,8.9-8.9
		C333.6,231.2,326.7,224.3,318.8,225.9z"/>
	<path class="st0" d="M315.1,193.4c0-0.4,0-0.7-0.1-1.1c-0.6,8.8-7.8,14.7-16.7,14.7c-8.9,0-16.2-5.9-16.7-14.7
		c0,0.4-0.1,0.7-0.1,1.1c0,9.3,7.5,16.8,16.8,16.8C307.6,210.1,315.1,202.6,315.1,193.4z"/>
	<path class="st0" d="M362.4,225.9c-4.4,0.8-8,4.5-8.9,8.9c-1.5,8,5.4,14.8,13.3,13.3c4.4-0.8,8-4.5,8.9-8.9
		C377.2,231.2,370.4,224.3,362.4,225.9z"/>
	<circle class="st0" cx="298.3" cy="191.2" r="8.9"/>
	<path class="st0" d="M385.4,222.6l-0.5-0.7c-11.9-15.3-17-19.4-42.1-2.3c-25.1-17.1-30.1-13-42.1,2.3l-0.5,0.6
		c-0.9,1.2-1.9,2.4-2.9,3.7c-4.9,6.1-6.7,11.9-5.4,17.3c2,8,10.2,11.7,10.6,11.9l0.9,0.2c0.9,0,1.7-0.5,2.1-1.3
		c0.2-0.5,0.3-1.2,0-1.7c-0.2-0.6-0.6-1-1.2-1.2c-0.3-0.1-6.6-3.1-8-8.8c-1-4,0.6-8.5,4.5-13.4c1.1-1.4,2.2-2.8,3.2-4.1l0.2-0.3
		c11-14.1,13.3-17.1,37.2-0.6l0.5,0.3l0.9,0.1c0.3,0,0.5,0,0.6-0.1l0.7-0.3c24-16.5,26.2-13.6,37.2,0.6l0.7,0.9
		c0.9,1.1,1.8,2.3,2.7,3.5c4,5,5.5,9.5,4.5,13.4c-1.4,5.7-7.7,8.7-7.9,8.8c-0.6,0.2-1,0.7-1.2,1.2c-0.2,0.6-0.2,1.2,0,1.7
		c0.4,0.8,1.2,1.3,2.1,1.3l0.6-0.1l0.3-0.1c0.3-0.2,8.6-3.9,10.5-11.9c1.3-5.4-0.5-11.2-5.4-17.3
		C387.2,224.9,386.3,223.7,385.4,222.6z"/>
	<path class="st0" d="M444.6,193.5c-0.7-10.1-2.2-20.1-4.1-29.5c0-0.1,0-0.2,0-0.3c-0.7-3.7-1.7-7.9-2.7-12.1
		c-0.9-3.7-1.8-7.2-2.8-10.6c0,0,0,0,0,0c-0.6-2.1-1.2-4-1.7-5.9c0-0.1,0-0.1-0.1-0.2c-0.3-1-0.6-1.9-0.9-2.8c0-0.1-0.1-0.2-0.1-0.4
		c-0.3-0.9-0.5-1.7-0.8-2.6c-0.1-0.2-0.1-0.3-0.2-0.5c-0.3-0.8-0.5-1.6-0.8-2.3c-0.1-0.2-0.1-0.3-0.2-0.5c-0.2-0.8-0.5-1.5-0.7-2.2
		c-0.1-0.2-0.1-0.3-0.2-0.5c-0.2-0.7-0.5-1.4-0.7-2c-0.1-0.2-0.1-0.3-0.2-0.5c-0.2-0.6-0.4-1.3-0.7-1.9c0-0.1-0.1-0.2-0.1-0.3
		c-0.2-0.6-0.4-1.2-0.7-1.8c0-0.1,0-0.1-0.1-0.2c-1.9-5.2-3.2-8.2-3.2-8.2l16,10.3c0,0-2.9-8.2-9.2-15.5
		c-16.3-18.9-55.5-29.8-55.5-29.8l19.5-0.3c0,0-5.9-3.8-22.8-7.8c-46.3-11.1-88.1,13.3-88.1,13.3L277,101c0,0-19.6,1.1-28.1,15.6
		c-0.3,0.4-0.5,0.9-0.7,1.4c0,0,0,0.1,0,0.1c-0.2,0.5-0.5,0.9-0.7,1.5c0,0.1-0.1,0.2-0.1,0.3c-0.2,0.5-0.4,0.9-0.6,1.5
		c0,0.1-0.1,0.2-0.1,0.3c-0.2,0.5-0.4,1-0.6,1.6c0,0.1-0.1,0.2-0.1,0.3c-0.2,0.6-0.4,1.2-0.6,1.8c0,0,0,0.1,0,0.1
		c-0.6,2.1-1.2,4.3-1.8,6.8c0,0,0,0,0,0c-0.6,2.7-1.2,5.5-1.7,8.6l0,0c0,0-0.1,0.5-0.2,1.3c-0.3,1.8-0.6,3.7-0.9,5.7
		c-1,6.6-2.2,16.5-2.4,24.4c-0.5,7-0.7,14.3-0.8,21.6c-8.3-5-27.4-8-25.9,16.1c7.2-7.5,21.6-2,24.9,2.2c0.8,1,1.4,2.8,1.9,5.1
		c0.5,2.4,0.9,5.3,1.2,8.5c0.2,1.6,0.3,3.3,0.4,5c0.3,5.1,0.5,10.5,0.6,15.3l0,0l0,0c0,0,0,0,0,0c0.7,16.1,0.6,33.7,0.5,40.1
		c0,0.7,0.9,0.9,1.3,0.4l2.4-4c1.4-2.3,4.8-1.9,5.7,0.6c4.6,14,12.3,42.1,16.4,57.4c0.8,3,5.1,3.1,6,0.1c1.8-5.8,3.8-11.9,3.9-11.6
		c4.4,8.9,38.7,43.5,47.8,52.6c1.2,1.2,3.2,1.2,4.4,0l9.9-9.5c1.2-1.2,3.1-1.2,4.4,0l9.7,9.4c1.3,1.2,3.3,1.2,4.5-0.2
		c7.1-8,30.3-34,44.1-48.5c1.6-1.7,4.5-1.1,5.3,1.2c0.6,1.7,1.2,3.7,1.9,5.8c1,3,5.2,2.9,6-0.1c4.3-15.7,13.5-41.9,17.6-57.2
		c0.6-2.1,3.4-2.5,4.5-0.6c1.3,2.1,4.5,1.2,4.6-1.2c0.5-12.3-0.2-23.6,0.2-34.7c-0.1,0-0.1,0-0.1,0c0.2-12.8,1-30,4.1-33.9
		c3.3-4.1,17.4-9.6,24.7-2.4C471.5,186.1,453,188.6,444.6,193.5z M350.7,154.1c-4,1.3,37.3-6.1,59.5-1.8c8.3,1.6,12,7.1,13.4,13.3
		c-0.8,4.9-2,8.4-2,8.4s-0.9,8.6-13.7,9.2c-12.8,0.5-59.9-1.7-59.9-1.7s-4.8,0.4-6.8-4.5C342,164.3,338.7,154.9,350.7,154.1z
		 M259.8,151.2c0,0,1.5-12.6,14.2-12c10.9-2,53.4,9.4,59.1,13.9c4.3,3.3,6.9,3.6,7.9,7.6c-0.4,6.3-1.1,11.9-1.4,14.9
		c-0.6,4.4-2.4,11.8-16.4,4.3c-14-7.6-55.1-9.8-55.1-9.8s-8.5,1-10.1-11.5C258.6,153.4,259.8,151.2,259.8,151.2z M342.9,332.1
		c-24.1,0-44.5-15.6-51.7-37.3c17.4-12.9,27.3-24.2,51.7-24.4c22.4-0.2,34.6,13.3,51.6,24.8C387.1,316.6,366.8,332.1,342.9,332.1z
		 M414.2,244.6l0,29.5c-4.2-5.9-14.4-20.5-14.3-19.9c3.9,13,3.3,35.7,0,41.8c-15.6-17.4-32.4-32.4-57.1-32.2
		c-26.9,0.3-40.5,12.9-57.1,32.1c-4.7-4.6-3.1-29.1,0-41.7l-14.2,19.9c0-3.3-0.1-29.4-0.1-29.4l-10.6,12.1c0,0,5.9-42.8,7.2-78
		c1.2,0.3,2.1,0.2,2.1,0.2s41.1,2.2,55.1,9.8c14,7.6,15.9,0.2,16.4-4.3c0.1-0.8,0.2-1.8,0.4-3c0.1,0.3,0.2,0.5,0.3,0.8
		c0.5,5.3,3.2,7.2,5.2,7.8c0,0,0.1,0.1,0.1,0.1h0.1c1.2,0.4,2.2,0.3,2.2,0.3s13.8,0.6,28.5,1.2c0.2,4.8,4.1,8.6,8.9,8.6
		c4.6,0,8.4-3.5,8.8-8.1c5.8,0.1,10.7,0.1,13.7,0c1.6-0.1,3.1-0.3,4.3-0.6c0.9,26.1,10.7,65.2,10.7,65.2L414.2,244.6z"/>
	<path class="st0" d="M387.3,207.7c-8.9,0-16.2-5.9-16.7-14.7c0,0.4-0.1,0.7-0.1,1.1c0,9.3,7.5,16.8,16.8,16.8
		c9.3,0,16.8-7.5,16.8-16.8c0-0.4,0-0.7-0.1-1.1C403.5,201.8,396.2,207.7,387.3,207.7z"/>
	<path class="st0" d="M240.5,245.8C240.5,245.8,240.5,245.9,240.5,245.8C240.5,245.9,240.5,245.8,240.5,245.8L240.5,245.8z"/>
</g>
</svg>
