<svg xmlns="http://www.w3.org/2000/svg" xmlns:xlink="http://www.w3.org/1999/xlink" version="1.1" style="" xml:space="preserve" width="318.382116746017" height="360.47154542145233"><rect id="backgroundrect" width="100%" height="100%" x="0" y="0" fill="none" stroke="none" class="" style=""/>
<style type="text/css">
	.st0{fill:#333333;}
</style>

<g class="currentLayer" style=""><title>Layer 1</title><g id="svg_1" class="" fill="none">
	<path class="st0" d="M273.20511300371106,74.50716830306493 c0.1990924596786499,-2.204076051712036 0,-4.408152103424072 -0.7963698387146,-6.512042880058289 c-0.09954622983932504,-0.40074110031127924 -3.882302963733673,-11.02038025856018 -12.045093810558319,-20.537981390953064 c-7.167328548431397,-8.315377831459045 -18.017867600917818,-16.029644012451172 -32.35252469778061,-23.04261326789856 c-0.7963698387146,-4.107596278190613 -3.1854793548583986,-7.814451456069946 -6.868689858913422,-10.118712782859802 c-1.891378366947174,-1.202223300933838 -9.357345604896546,-5.51019012928009 -27.474759435653688,-9.818156957626343 c-9.257799375057221,-2.204076051712036 -18.814237439632414,-3.306114077568054 -28.669314193725587,-3.306114077568054 c-38.82302963733673,0 -69.28417596817016,17.63260841369629 -70.47873072624206,18.434090614318848 c-3.3845718145370483,2.0037055015563965 -5.972773790359497,5.209634304046631 -7.067782318592071,9.116860032081604 l-3.981849193572998,13.525012135505676 c-8.959160685539246,2.5046318769454956 -21.601531875133514,8.315377831459045 -29.16704534292221,21.239278316497803 c-0.6968236088752754,1.202223300933838 -1.2941009879112244,2.6048171520233154 -1.990924596786499,4.007411003112793 c-29.067499113082885,28.25224757194519 -47.184912943840025,67.7252459526062 -47.184912943840025,111.50621116161346 c0,53.09819579124451 26.678389596939088,99.98490452766418 67.19370514154434,127.93659627437592 l0.39818491935730027,1.5027791261672974 l0.49773114919662476,1.703149676322938 l0.09954622983932504,0.5009263753890991 l0,0.10018527507781994 l4.479580342769623,16.73094093799591 c1.2941009879112244,4.708707928657532 5.574588871002197,8.115007281303406 10.45235413312912,8.115007281303406 c4.877765262126923,0 9.257799375057221,-3.306114077568054 10.45235413312912,-8.115007281303406 l1.3936472177505492,-5.4100048542022705 c3.4841180443763733,1.4025938510894775 6.968236088752747,2.7050024271011353 10.551900362968444,3.907225728034973 c9.85507675409317,10.419268608093262 19.31196858882904,19.936869740486145 23.293817782402037,23.944280743598938 l3.285025584697723,3.306114077568054 c2.090470826625824,2.1038907766342163 4.7782190322875975,3.2059288024902344 7.665059697628021,3.2059288024902344 c2.7872944355010985,0 5.475042641162872,-1.102038025856018 7.565513467788696,-3.1057435274124146 l5.972773790359497,-5.81074595451355 l0.7963698387146,-0.701296925544739 l3.3845718145370483,3.306114077568054 l0.49773114919662476,0.5009263753890991 l0,0 l2.9863868951797485,2.905372977256775 c1.990924596786499,2.0037055015563965 4.6786728024482755,3.1057435274124146 7.565513467788696,3.1057435274124146 c3.0859331250190736,0 6.072320020198822,-1.3024085760116577 8.06324461698532,-3.7068551778793335 l2.7872944355010985,-3.1057435274124146 l0,0 l0.49773114919662476,-0.5009263753890991 l1.990924596786499,-2.204076051712036 l0.49773114919662476,-0.5009263753890991 c2.886840665340424,-3.306114077568054 9.65598429441452,-10.92019498348236 17.420590221881866,-19.536128640174866 c4.877765262126923,-1.5027791261672974 9.65598429441452,-3.306114077568054 14.235110867023469,-5.209634304046631 l2.090470826625824,6.411857604980469 c1.4931934475898743,4.508337378501892 5.574588871002197,7.513895630836487 10.25326167345047,7.513895630836487 c5.275950181484222,0 9.755530524253846,-3.8070404529571533 10.651446592807769,-8.916489481925964 l2.9863868951797485,-16.12982928752899 c0.39818491935730027,-1.202223300933838 0.49773114919662476,-2.304261326789856 0.5972773790359496,-3.406299352645874 c40.81395423412323,-27.95169174671173 67.59189006090165,-75.03877103328705 67.59189006090165,-128.23715209960938 C313.22269739911974,138.62574435286962 298.0916704635423,102.05811894946538 273.20511300371106,74.50716830306493 zM300.2816875200075,145.638713608317 c-3.4841180443763733,-7.7142661809921265 -9.257799375057221,-11.72167718410492 -13.637833487987518,-13.625197410583496 c-3.285025584697723,-1.5027791261672974 -6.868689858913422,-2.304261326789856 -10.651446592807769,-2.5046318769454956 c-2.3891095161437987,-16.33019983768463 -6.171866250038147,-31.458176374435425 -9.65598429441452,-43.179853558540344 c0.2986386895179751,-0.20037055015563965 0.6968236088752754,-0.5009263753890991 0.9954622983932492,-0.701296925544739 c0.5972773790359496,-0.5009263753890991 1.1945547580718994,-1.0018527507781982 1.7918321371078492,-1.6029644012451172 C284.0556520561975,101.35682202392063 294.9061911086839,122.39572979026279 300.2816875200075,145.638713608317 zM46.2397089700502,87.4310687881037 c-2.588201975822449,12.823715209960938 -4.280487883090973,27.95169174671173 -5.076857721805572,42.077815532684326 c-3.3845718145370483,0.30055582523345986 -6.570051169395446,1.102038025856018 -9.556438064575195,2.5046318769454956 c-4.380034112930298,2.0037055015563965 -10.05416921377182,5.91093122959137 -13.637833487987518,13.625197410583496 C23.045437417487477,123.99869419150794 32.90051417158065,104.1620097260996 46.2397089700502,87.4310687881037 zM14.285369191626899,178.80003965907537 c0,-4.808893203735352 0.1990924596786499,-9.517601132392883 0.6968236088752754,-14.126123785972595 c0.09954622983932504,2.805187702178955 0.39818491935730027,5.81074595451355 0.9954622983932492,9.116860032081604 c2.9863868951797485,16.83112621307373 10.05416921377182,28.95354449748993 21.10380072593689,35.8663284778595 c2.190017056465149,1.4025938510894775 4.579126572608947,2.5046318769454956 7.067782318592071,3.406299352645874 c0.09954622983932504,3.7068551778793335 0.09954622983932504,7.413710355758667 0.1990924596786499,10.820009708404541 l0,13.925753235816956 l0,4.808893203735352 l0,0.5009263753890991 l0,0.6011116504669195 l0,0.20037055015563965 c0,7.7142661809921265 -0.09954622983932504,14.126123785972595 -0.09954622983932504,18.434090614318848 c0,2.905372977256775 1.0950085282325746,5.71056067943573 3.0859331250190736,7.814451456069946 c1.990924596786499,2.1038907766342163 4.877765262126923,3.2059288024902344 7.764605927467346,3.2059288024902344 c2.886840665340424,0 5.475042641162872,-1.102038025856018 7.465967237949371,-3.0055582523345947 c2.190017056465149,7.814451456069946 4.280487883090973,15.729088187217712 6.072320020198822,22.14094579219818 l0,0 l0,0.10018527507781994 C35.488716147403096,265.66067315154515 14.285369191626899,224.68489564471685 14.285369191626899,178.80003965907537 zM233.08798237846315,324.9703559976145 c-0.1990924596786499,0.9016674757003784 -0.8959160685539246,1.4025938510894775 -1.692285907268525,1.4025938510894775 c-0.6968236088752754,0 -1.3936472177505492,-0.40074110031127924 -1.5927396774292004,-1.202223300933838 l-2.3891095161437987,-7.413710355758667 l-2.886840665340424,-8.816304206848145 l-0.09954622983932504,-0.40074110031127924 c-0.09954622983932504,-0.20037055015563965 -0.1990924596786499,-0.30055582523345986 -0.1990924596786499,-0.5009263753890991 l-2.886840665340424,-9.016674757003784 c-0.1990924596786499,-0.8014822006225585 -0.8959160685539246,-1.202223300933838 -1.5927396774292004,-1.202223300933838 c-0.39818491935730027,0 -0.8959160685539246,0.20037055015563965 -1.1945547580718994,0.5009263753890991 c-5.773681330680847,6.311672329902649 -12.443278729915619,13.525012135505676 -18.615144979953765,20.437796115875244 c-3.882302963733673,4.408152103424072 -7.665059697628021,8.515748381614685 -10.85053905248642,12.122418284416199 c-3.4841180443763733,3.907225728034973 -6.470504939556122,7.213339805603027 -8.361883306503296,9.417415857315063 h0 c-0.1990924596786499,0.20037055015563965 -0.2986386895179751,0.40074110031127924 -0.49773114919662476,0.6011116504669195 c-1.1945547580718994,1.3024085760116577 -1.891378366947174,2.1038907766342163 -1.891378366947174,2.204076051712036 c0,0 0,0 0,0 c-1.3936472177505492,1.5027791261672974 -2.488655745983124,2.805187702178955 -3.1854793548583986,3.6066699028015137 c-0.2986386895179751,0.40074110031127924 -0.7963698387146,0.6011116504669195 -1.2941009879112244,0.6011116504669195 c-0.39818491935730027,0 -0.8959160685539246,-0.20037055015563965 -1.1945547580718994,-0.5009263753890991 l-3.4841180443763733,-3.406299352645874 c0,0 0,0 0,0 l-8.560975766181945,-8.315377831459045 c-0.2986386895179751,-0.30055582523345986 -0.7963698387146,-0.5009263753890991 -1.1945547580718994,-0.5009263753890991 c-0.39818491935730027,0 -0.8959160685539246,0.20037055015563965 -1.1945547580718994,0.5009263753890991 l-5.972773790359497,5.81074595451355 h0 l-5.972773790359497,5.81074595451355 c-0.2986386895179751,0.30055582523345986 -0.7963698387146,0.5009263753890991 -1.1945547580718994,0.5009263753890991 c-0.39818491935730027,0 -0.7963698387146,-0.20037055015563965 -1.1945547580718994,-0.5009263753890991 c-0.7963698387146,-0.8014822006225585 -1.891378366947174,-1.903520226478577 -3.285025584697723,-3.306114077568054 c0,0 0,0 0,0 c-2.190017056465149,-2.204076051712036 -6.868689858913422,-6.812598705291748 -12.542824959754943,-12.723529934883118 c-3.782756733894348,-3.8070404529571533 -7.963698387145996,-8.215192556381226 -12.144640040397643,-12.623344659805298 c-6.669597399234772,-7.012969255447388 -13.339194798469544,-14.326494336128235 -18.31650629043579,-20.337610840797424 c-0.5972773790359496,2.0037055015563965 -1.2941009879112244,4.107596278190613 -1.891378366947174,6.211487054824829 l-1.3936472177505492,5.209634304046631 l-2.3891095161437987,9.116860032081604 l-1.7918321371078492,6.812598705291748 c-0.1990924596786499,0.8014822006225585 -0.8959160685539246,1.3024085760116577 -1.692285907268525,1.3024085760116577 c-0.6968236088752754,0 -1.3936472177505492,-0.40074110031127924 -1.692285907268525,-1.3024085760116577 l-2.9863868951797485,-11.120565533638 l-1.5927396774292004,-6.111301779747009 c0,0 0,-0.10018527507781994 0,-0.10018527507781994 c-0.09954622983932504,-0.6011116504669195 -0.2986386895179751,-1.202223300933838 -0.49773114919662476,-1.8033349514007568 l-0.8959160685539246,-3.406299352645874 l0,0 c-0.09954622983932504,-0.40074110031127924 -0.1990924596786499,-0.9016674757003784 -0.39818491935730027,-1.4025938510894775 c-3.782756733894348,-14.526864886283875 -9.257799375057221,-34.56391990184784 -13.538287258148193,-49.29115533828735 c-0.1990924596786499,-0.8014822006225585 -0.8959160685539246,-1.202223300933838 -1.5927396774292004,-1.202223300933838 c-0.5972773790359496,0 -1.0950085282325746,0.30055582523345986 -1.4931934475898743,0.8014822006225585 l-7.167328548431397,11.922047734260559 c-0.2986386895179751,0.6011116504669195 -0.8959160685539246,0.8014822006225585 -1.4931934475898743,0.8014822006225585 c-0.8959160685539246,0 -1.692285907268525,-0.701296925544739 -1.692285907268525,-1.703149676322938 c0,-4.408152103424072 0.09954622983932504,-10.92019498348236 0.09954622983932504,-18.935016989707947 c0,0 0,-0.10018527507781994 0,-0.10018527507781994 c0,0 0,-0.30055582523345986 0,-0.701296925544739 c0,-1.6029644012451172 0,-3.2059288024902344 0,-4.808893203735352 c0,0 0,0 0,0 c0,-7.012969255447388 0,-19.536128640174866 -0.39818491935730027,-31.959102749824524 c-3.4841180443763733,-0.5009263753890991 -7.366421008110047,-1.703149676322938 -11.149177742004394,-4.107596278190613 c-8.760068225860596,-5.51019012928009 -14.434203326702118,-15.528717637062073 -16.92285907268524,-29.654841423034668 c-3.6832105040550234,-20.738351941108704 3.6832105040550234,-28.65298867225647 10.45235413312912,-31.758732199668884 c2.7872944355010985,-1.202223300933838 5.773681330680847,-1.8033349514007568 8.760068225860596,-1.8033349514007568 c1.990924596786499,0 3.882302963733673,0.20037055015563965 5.773681330680847,0.6011116504669195 c0.7963698387146,-27.350580096244812 4.479580342769623,-52.99801051616669 9.85507675409317,-66.42283737659454 c0.6968236088752754,-1.8033349514007568 1.4931934475898743,-3.506484627723694 2.2895632863044737,-4.808893203735352 c7.067782318592071,-12.122418284416199 20.10833842754364,-16.43038511276245 27.57430566549301,-17.93316423892975 c0.5972773790359496,-0.10018527507781994 1.0950085282325746,-0.6011116504669195 1.2941009879112244,-1.202223300933838 l3.0859331250190736,-10.519453883171082 l2.090470826625824,-7.1131545305252075 c0.49773114919662476,-1.6029644012451172 1.4931934475898743,-2.905372977256775 2.886840665340424,-3.7068551778793335 c1.4931934475898743,-0.9016674757003784 29.664776492118836,-17.13168203830719 65.89960415363312,-17.13168203830719 c8.46142953634262,0 17.420590221881866,0.9016674757003784 26.57884336709976,3.1057435274124146 c17.420590221881866,4.207781553268433 23.990641391277315,8.215192556381226 24.68746500015259,8.716118931770325 c2.3891095161437987,1.5027791261672974 3.4841180443763733,4.408152103424072 2.6877482056617747,7.213339805603027 c-0.09954622983932504,0.30055582523345986 -0.1990924596786499,0.701296925544739 -0.39818491935730027,1.0018527507781982 c12.24418627023697,5.4100048542022705 26.280204677581786,13.224456310272217 34.94072667360306,23.2429838180542 c1.891378366947174,2.304261326789856 3.5836642742156983,4.608522653579712 4.977311491966248,6.812598705291748 c3.5836642742156983,5.71056067943573 5.275950181484222,10.519453883171082 5.375496411323548,10.820009708404541 c0.6968236088752754,2.0037055015563965 0.2986386895179751,4.207781553268433 -0.8959160685539246,5.91093122959137 c-0.2986386895179751,0.5009263753890991 -0.6968236088752754,0.9016674757003784 -1.1945547580718994,1.3024085760116577 c-1.1945547580718994,0.9016674757003784 -2.588201975822449,1.4025938510894775 -3.981849193572998,1.4025938510894775 c-0.1990924596786499,0 -0.39818491935730027,0 -0.5972773790359496,0 c-0.09954622983932504,0 -0.09954622983932504,0 -0.1990924596786499,0 c-1.0950085282325746,0 -1.891378366947174,1.102038025856018 -1.4931934475898743,2.204076051712036 c4.6786728024482755,14.727235436439514 10.25326167345047,35.46558737754822 12.642371189594268,57.40616261959076 c1.990924596786499,-0.40074110031127924 4.081395423412323,-0.701296925544739 6.072320020198822,-0.701296925544739 c2.9863868951797485,0 5.972773790359497,0.5009263753890991 8.760068225860596,1.8033349514007568 c6.7691436290740965,3.1057435274124146 14.135564637184142,11.120565533638 10.45235413312912,31.758732199668884 c-2.488655745983124,14.226309061050415 -8.162790846824645,24.144651293754578 -16.92285907268524,29.654841423034668 c-3.6832105040550234,2.304261326789856 -7.465967237949371,3.506484627723694 -10.750992822647095,4.007411003112793 c0,3.6066699028015137 0,7.313525080680847 0,11.120565533638 c0.09954622983932504,8.515748381614685 0.1990924596786499,17.33205258846283 -0.5972773790359496,26.849653720855713 c0,0 0,0.10018527507781994 0,0.10018527507781994 c-0.1990924596786499,4.408152103424072 -0.39818491935730027,8.816304206848145 -0.6968236088752754,13.424826860427856 c-0.09954622983932504,1.0018527507781982 -0.8959160685539246,1.6029644012451172 -1.692285907268525,1.6029644012451172 c-0.5972773790359496,0 -1.0950085282325746,-0.30055582523345986 -1.3936472177505492,-0.8014822006225585 l-5.375496411323548,-8.916489481925964 c-0.6968236088752754,-0.40074110031127924 -1.3936472177505492,-0.9016674757003784 -1.891378366947174,-1.5027791261672974 c-1.891378366947174,6.211487054824829 -4.081395423412323,13.224456310272217 -6.370958709716797,20.437796115875244 c-3.5836642742156983,11.22075080871582 -8.162790846824645,25.747615694999695 -9.954622983932495,33.361696600914 c-0.2986386895179751,1.5027791261672974 -0.5972773790359496,2.7050024271011353 -0.6968236088752754,3.6066699028015137 l0,0 l-0.09954622983932504,0.40074110031127924 c0,0.20037055015563965 0,0.30055582523345986 0,0.5009263753890991 c0,0.8014822006225585 -0.1990924596786499,1.5027791261672974 -0.49773114919662476,2.204076051712036 l-0.9954622983932492,5.4100048542022705 L233.08798237846315,324.9703559976145 zM249.21447161243378,292.91106797271215 c2.190017056465149,-7.413710355758667 4.977311491966248,-16.12982928752899 6.868689858913422,-22.04076051712036 c0.39818491935730027,-1.4025938510894775 0.8959160685539246,-2.805187702178955 1.2941009879112244,-4.107596278190613 c1.5927396774292004,0.9016674757003784 3.285025584697723,1.3024085760116577 5.176403951644898,1.3024085760116577 c5.674135100841522,0 10.45235413312912,-4.408152103424072 10.85053905248642,-10.118712782859802 c0.2986386895179751,-4.508337378501892 0.49773114919662476,-8.916489481925964 0.6968236088752754,-13.224456310272217 l0,-0.10018527507781994 c0.8959160685539246,-10.018527507781982 0.7963698387146,-19.035202264785767 0.6968236088752754,-27.75132119655609 c0,-1.3024085760116577 0,-2.7050024271011353 0,-4.007411003112793 c2.2895632863044737,-0.9016674757003784 4.479580342769623,-2.0037055015563965 6.570051169395446,-3.306114077568054 c11.04963151216507,-6.912783980369568 18.11741383075714,-19.035202264785767 21.10380072593689,-35.8663284778595 c0.5972773790359496,-3.306114077568054 0.8959160685539246,-6.311672329902649 0.9954622983932492,-9.116860032081604 c0.49773114919662476,4.708707928657532 0.6968236088752754,9.417415857315063 0.6968236088752754,14.126123785972595 C304.16399048374114,224.98545146995033 282.66200483844693,266.16159952693425 249.21447161243378,292.91106797271215 z" id="svg_2" fill="none" fill-opacity="1"/>
	<g id="svg_3" fill="none" fill-opacity="1">
		<path class="st0" d="M-101.28780365182938,380.6733689408823 h37.42938241958618 v12.923900485038757 H-85.55949933721604 v9.717971682548523 h19.212422358989716 v13.424826860427856 H-85.55949933721604 v23.944280743598938 H-101.28780365182938 V380.6733689408823 z" id="svg_4" fill="none" fill-opacity="1"/>
		<path class="st0" d="M-17.96760927631439,440.6843487124964 l-9.257799375057221,-15.929458737373352 h-9.755530524253846 v15.929458737373352 h-15.628758084774017 v-60.111165046691895 l24.189733850955964,0 c9.65598429441452,0 18.814237439632414,5.71056067943573 21.800624334812163,14.927605986595154 c2.9863868951797485,9.116860032081604 -0.09954622983932504,17.83297896385193 -5.972773790359497,23.34316909313202 l12.642371189594268,21.740204691886902 H-17.96760927631439 zM-36.88139294578613,411.12969256453954 h9.755530524253846 c4.7782190322875975,0 8.560975766181945,-3.8070404529571533 8.560975766181945,-8.615933656692505 s-3.782756733894348,-8.615933656692505 -8.560975766181945,-8.615933656692505 h-9.755530524253846 V411.12969256453954 z" id="svg_5" fill="none" fill-opacity="1"/>
		<path class="st0" d="M5.425754735926972,440.6843487124964 l27.872944355010986,-60.111165046691895 h7.067782318592071 l28.072036814689636,60.111165046691895 H52.80976013944564 l-3.6832105040550234,-7.814451456069946 h-24.388826310634613 l-3.5836642742156983,7.814451456069946 H5.425754735926972 zM30.810043344954835,419.5452556710764 h12.144640040397643 l-6.072320020198822,-13.224456310272217 L30.810043344954835,419.5452556710764 z" id="svg_6" fill="none" fill-opacity="1"/>
		<path class="st0" d="M120.40165020034726,440.6843487124964 L92.23006715581835,412.23173059039556 v28.45261812210083 h-15.628758084774017 v-60.111165046691895 h6.370958709716797 l28.271129274368285,28.35243284702301 v-28.35243284702301 h15.628758084774017 v60.111165046691895 H120.40165020034726 z" id="svg_7" fill="none" fill-opacity="1"/>
		<path class="st0" d="M137.6231479625505,380.5731836658045 h46.98582048416138 V396.2020865779444 h-15.827850544452668 v44.482262134552 h-15.628758084774017 V396.2020865779444 h-15.529211854934692 V380.5731836658045 z" id="svg_8" fill="none" fill-opacity="1"/>
		<path class="st0" d="M195.4595074991983,380.6733689408823 H211.08826558397232 v60.111165046691895 h-15.728304314613343 V380.6733689408823 z" id="svg_9" fill="none" fill-opacity="1"/>
		<path class="st0" d="M257.47680868909777,397.60468042903386 c-3.6832105040550234,-1.8033349514007568 -8.262337076663972,-1.903520226478577 -12.841463649272919,0.30055582523345986 c-5.375496411323548,2.6048171520233154 -8.46142953634262,8.916489481925964 -7.366421008110047,14.827420711517334 c1.7918321371078492,9.217045307159424 9.954622983932495,13.925753235816956 18.31650629043579,11.02038025856018 c3.882302963733673,-1.3024085760116577 6.669597399234772,-3.8070404529571533 8.262337076663972,-7.012969255447388 l14.036018407344818,6.912783980369568 c-4.7782190322875975,9.617786407470703 -14.533749556541443,16.83112621307373 -27.37521320581436,16.83112621307373 c-9.257799375057221,0 -18.216960060596467,-4.708707928657532 -23.49291024208069,-12.322788834571838 c-12.24418627023697,-17.53242313861847 -3.782756733894348,-40.07411003112793 14.633295786380767,-46.28559708595276 c7.764605927467346,-2.6048171520233154 15.827850544452668,-1.903520226478577 22.69654040336609,1.6029644012451172 L257.47680868909777,397.60468042903386 z" id="svg_10" fill="none" fill-opacity="1"/>
		<path class="st0" d="M279.97425663278517,440.6843487124964 l27.872944355010986,-60.111165046691895 h1.7918321371078492 l27.872944355010986,60.111165046691895 h-1.7918321371078492 l-8.959160685539246,-19.335758090019226 h-36.135281431674954 l-8.959160685539246,19.335758090019226 H279.97425663278517 zM291.42207306430754,419.74562622123204 h34.54254175424576 l-17.32104399204254,-37.268922328948975 L291.42207306430754,419.74562622123204 z" id="svg_11" fill="none" fill-opacity="1"/>
		<path class="st0" d="M383.70142812536176,404.3170938592478 c-2.3891095161437987,7.313525080680847 -9.85507675409317,11.82186245918274 -17.520136451721193,11.82186245918274 l-17.818775141239165,0 v24.545392394065857 h-1.4931934475898743 v-60.111165046691895 h20.10833842754364 C378.62457040355616,380.6733689408823 387.7828235487741,392.0944902997538 383.70142812536176,404.3170938592478 zM348.3625165324014,382.1761480670496 v32.46002912521362 h18.615144979953765 c10.352807903289795,-0.10018527507781994 18.615144979953765,-10.118712782859802 15.230573165416718,-21.339463591575623 c-2.090470826625824,-6.812598705291748 -8.959160685539246,-11.120565533638 -16.02694300413132,-11.120565533638 H348.3625165324014 z" id="svg_12" fill="none" fill-opacity="1"/>
		<path class="st0" d="M396.642438004474,380.6733689408823 h37.130743730068204 v1.6029644012451172 h-35.63755028247833 v26.949838995933533 h33.148894536495206 v1.6029644012451172 h-33.148894536495206 v28.35243284702301 h35.63755028247833 v1.6029644012451172 h-37.130743730068204 V380.6733689408823 z" id="svg_13" fill="none" fill-opacity="1"/>
	</g>
	<path class="st0" d="M58.68298769996582,185.31208253913366 c0.2986386895179751,5.109449028968811 0.49773114919662476,10.519453883171082 0.5972773790359496,15.328347086906433 l0,0 C59.180718849162446,195.93172169738256 59.08117261932313,190.42153156810247 58.68298769996582,185.31208253913366 z" id="svg_14" fill="none" fill-opacity="1"/>
	<path class="st0" d="M58.284802780608516,180.40300406032048 c-0.2986386895179751,-3.2059288024902344 -0.6968236088752754,-6.111301779747009 -1.1945547580718994,-8.515748381614685 C57.58797917173325,174.19151700549565 57.98616409109053,177.19707525783025 58.284802780608516,180.40300406032048 z" id="svg_15" fill="none" fill-opacity="1"/>
	<path class="st0" d="M137.2249630431932,180.70355988555394 c-4.380034112930298,0.8014822006225585 -7.963698387145996,4.508337378501892 -8.859614455699921,8.916489481925964 c-1.4931934475898743,7.914636731147766 5.375496411323548,14.827420711517334 13.23964856863022,13.324641585350037 c4.380034112930298,-0.8014822006225585 7.963698387145996,-4.508337378501892 8.859614455699921,-8.916489481925964 C151.95780505941332,186.0133794646784 145.08911520049986,179.10059548430883 137.2249630431932,180.70355988555394 z" id="svg_16" fill="none" fill-opacity="1"/>
	<path class="st0" d="M133.5417525391382,148.1433454852625 c0,-0.40074110031127924 0,-0.701296925544739 -0.09954622983932504,-1.102038025856018 c-0.5972773790359496,8.816304206848145 -7.764605927467346,14.727235436439514 -16.624220383167266,14.727235436439514 c-8.859614455699921,0 -16.12648923397064,-5.91093122959137 -16.624220383167266,-14.727235436439514 c0,0.40074110031127924 -0.09954622983932504,0.701296925544739 -0.09954622983932504,1.102038025856018 c0,9.317230582237244 7.465967237949371,16.83112621307373 16.723766613006593,16.83112621307373 C126.07578530118883,164.8742864232584 133.5417525391382,157.36039079242192 133.5417525391382,148.1433454852625 z" id="svg_17" fill="none" fill-opacity="1"/>
	<path class="st0" d="M180.62711925313886,180.70355988555394 c-4.380034112930298,0.8014822006225585 -7.963698387145996,4.508337378501892 -8.859614455699921,8.916489481925964 c-1.4931934475898743,8.014822006225586 5.375496411323548,14.827420711517334 13.23964856863022,13.324641585350037 c4.380034112930298,-0.8014822006225585 7.963698387145996,-4.508337378501892 8.859614455699921,-8.916489481925964 C195.35996126935896,186.0133794646784 188.59081764028485,179.10059548430883 180.62711925313886,180.70355988555394 z" id="svg_18" fill="none" fill-opacity="1"/>
	<circle class="st0" cx="116.8179737744922" cy="145.9392663761385" r="8.859614372253418" id="svg_19" fill="none" fill-opacity="1"/>
	<path class="st0" d="M203.5227521161836,177.3974458079859 l-0.49773114919662476,-0.701296925544739 c-11.84600135087967,-15.328347086906433 -16.92285907268524,-19.435943365097046 -41.908962762355806,-2.304261326789856 c-24.986103689670564,-17.13168203830719 -29.96341518163681,-13.024085760116577 -41.908962762355806,2.304261326789856 l-0.49773114919662476,0.6011116504669195 c-0.8959160685539246,1.202223300933838 -1.891378366947174,2.4044466018676762 -2.886840665340424,3.7068551778793335 c-4.877765262126923,6.111301779747009 -6.669597399234772,11.922047734260559 -5.375496411323548,17.33205258846283 c1.990924596786499,8.014822006225586 10.153715443611144,11.72167718410492 10.551900362968444,11.922047734260559 l0.8959160685539246,0.20037055015563965 c0.8959160685539246,0 1.692285907268525,-0.5009263753890991 2.090470826625824,-1.3024085760116577 c0.1990924596786499,-0.5009263753890991 0.2986386895179751,-1.202223300933838 0,-1.703149676322938 c-0.1990924596786499,-0.6011116504669195 -0.5972773790359496,-1.0018527507781982 -1.1945547580718994,-1.202223300933838 c-0.2986386895179751,-0.10018527507781994 -6.570051169395446,-3.1057435274124146 -7.963698387145996,-8.816304206848145 c-0.9954622983932492,-4.007411003112793 0.5972773790359496,-8.515748381614685 4.479580342769623,-13.424826860427856 c1.0950085282325746,-1.4025938510894775 2.190017056465149,-2.805187702178955 3.1854793548583986,-4.107596278190613 l0.1990924596786499,-0.30055582523345986 c10.950085282325745,-14.126123785972595 13.23964856863022,-17.13168203830719 37.031197500228885,-0.6011116504669195 l0.49773114919662476,0.30055582523345986 l0.8959160685539246,0.10018527507781994 c0.2986386895179751,0 0.49773114919662476,0 0.5972773790359496,-0.10018527507781994 l0.6968236088752754,-0.30055582523345986 c23.89109516143799,-16.53057038784027 26.081112217903136,-13.625197410583496 37.031197500228885,0.6011116504669195 l0.6968236088752754,0.9016674757003784 c0.8959160685539246,1.102038025856018 1.7918321371078492,2.304261326789856 2.6877482056617747,3.506484627723694 c3.981849193572998,5.009263753890991 5.475042641162872,9.517601132392883 4.479580342769623,13.424826860427856 c-1.3936472177505492,5.71056067943573 -7.665059697628021,8.716118931770325 -7.8641521573066715,8.816304206848145 c-0.5972773790359496,0.20037055015563965 -0.9954622983932492,0.701296925544739 -1.1945547580718994,1.202223300933838 c-0.1990924596786499,0.6011116504669195 -0.1990924596786499,1.202223300933838 0,1.703149676322938 c0.39818491935730027,0.8014822006225585 1.1945547580718994,1.3024085760116577 2.090470826625824,1.3024085760116577 l0.5972773790359496,-0.10018527507781994 l0.2986386895179751,-0.10018527507781994 c0.2986386895179751,-0.20037055015563965 8.560975766181945,-3.907225728034973 10.45235413312912,-11.922047734260559 c1.2941009879112244,-5.4100048542022705 -0.49773114919662476,-11.22075080871582 -5.375496411323548,-17.33205258846283 C205.31458425329146,179.70170713477575 204.41866818473756,178.4994838338419 203.5227521161836,177.3974458079859 z" id="svg_20" fill="none" fill-opacity="1"/>
	<path class="st0" d="M262.454120181064,148.24353076034032 c-0.6968236088752754,-10.118712782859802 -2.190017056465149,-20.137240290641785 -4.081395423412323,-29.554656147956848 c0,-0.10018527507781994 0,-0.20037055015563965 0,-0.30055582523345986 c-0.6968236088752754,-3.7068551778793335 -1.692285907268525,-7.914636731147766 -2.6877482056617747,-12.122418284416199 c-0.8959160685539246,-3.7068551778793335 -1.7918321371078492,-7.213339805603027 -2.7872944355010985,-10.619639158248901 c0,0 0,0 0,0 c-0.5972773790359496,-2.1038907766342163 -1.1945547580718994,-4.007411003112793 -1.692285907268525,-5.91093122959137 c0,-0.10018527507781994 0,-0.10018527507781994 -0.09954622983932504,-0.20037055015563965 c-0.2986386895179751,-1.0018527507781982 -0.5972773790359496,-1.903520226478577 -0.8959160685539246,-2.805187702178955 c0,-0.10018527507781994 -0.09954622983932504,-0.20037055015563965 -0.09954622983932504,-0.40074110031127924 c-0.2986386895179751,-0.9016674757003784 -0.49773114919662476,-1.703149676322938 -0.7963698387146,-2.6048171520233154 c-0.09954622983932504,-0.20037055015563965 -0.09954622983932504,-0.30055582523345986 -0.1990924596786499,-0.5009263753890991 c-0.2986386895179751,-0.8014822006225585 -0.49773114919662476,-1.6029644012451172 -0.7963698387146,-2.304261326789856 c-0.09954622983932504,-0.20037055015563965 -0.09954622983932504,-0.30055582523345986 -0.1990924596786499,-0.5009263753890991 c-0.1990924596786499,-0.8014822006225585 -0.49773114919662476,-1.5027791261672974 -0.6968236088752754,-2.204076051712036 c-0.09954622983932504,-0.20037055015563965 -0.09954622983932504,-0.30055582523345986 -0.1990924596786499,-0.5009263753890991 c-0.1990924596786499,-0.701296925544739 -0.49773114919662476,-1.4025938510894775 -0.6968236088752754,-2.0037055015563965 c-0.09954622983932504,-0.20037055015563965 -0.09954622983932504,-0.30055582523345986 -0.1990924596786499,-0.5009263753890991 c-0.1990924596786499,-0.6011116504669195 -0.39818491935730027,-1.3024085760116577 -0.6968236088752754,-1.903520226478577 c0,-0.10018527507781994 -0.09954622983932504,-0.20037055015563965 -0.09954622983932504,-0.30055582523345986 c-0.1990924596786499,-0.6011116504669195 -0.39818491935730027,-1.202223300933838 -0.6968236088752754,-1.8033349514007568 c0,-0.10018527507781994 0,-0.10018527507781994 -0.09954622983932504,-0.20037055015563965 c-1.891378366947174,-5.209634304046631 -3.1854793548583986,-8.215192556381226 -3.1854793548583986,-8.215192556381226 l15.927396774291992,10.319083333015442 c0,0 -2.886840665340424,-8.215192556381226 -9.158253145217895,-15.528717637062073 c-16.226035463809968,-18.935016989707947 -55.24815756082535,-29.855211973190308 -55.24815756082535,-29.855211973190308 l19.411514818668365,-0.30055582523345986 c0,0 -5.8732275605201725,-3.8070404529571533 -22.69654040336609,-7.814451456069946 c-46.08990441560745,-11.120565533638 -87.70022848844528,13.324641585350037 -87.70022848844528,13.324641585350037 L95.61463897035537,55.57215131335698 c0,0 -19.511061048507692,1.102038025856018 -27.972490584850313,15.628902912139893 c-0.2986386895179751,0.40074110031127924 -0.49773114919662476,0.9016674757003784 -0.6968236088752754,1.4025938510894775 c0,0 0,0.10018527507781994 0,0.10018527507781994 c-0.1990924596786499,0.5009263753890991 -0.49773114919662476,0.9016674757003784 -0.6968236088752754,1.5027791261672974 c0,0.10018527507781994 -0.09954622983932504,0.20037055015563965 -0.09954622983932504,0.30055582523345986 c-0.1990924596786499,0.5009263753890991 -0.39818491935730027,0.9016674757003784 -0.5972773790359496,1.5027791261672974 c0,0.10018527507781994 -0.09954622983932504,0.20037055015563965 -0.09954622983932504,0.30055582523345986 c-0.1990924596786499,0.5009263753890991 -0.39818491935730027,1.0018527507781982 -0.5972773790359496,1.6029644012451172 c0,0.10018527507781994 -0.09954622983932504,0.20037055015563965 -0.09954622983932504,0.30055582523345986 c-0.1990924596786499,0.6011116504669195 -0.39818491935730027,1.202223300933838 -0.5972773790359496,1.8033349514007568 c0,0 0,0.10018527507781994 0,0.10018527507781994 c-0.5972773790359496,2.1038907766342163 -1.1945547580718994,4.307966828346252 -1.7918321371078492,6.812598705291748 c0,0 0,0 0,0 c-0.5972773790359496,2.7050024271011353 -1.1945547580718994,5.51019012928009 -1.692285907268525,8.615933656692505 l0,0 c0,0 -0.09954622983932504,0.5009263753890991 -0.1990924596786499,1.3024085760116577 c-0.2986386895179751,1.8033349514007568 -0.5972773790359496,3.7068551778793335 -0.8959160685539246,5.71056067943573 c-0.9954622983932492,6.612228155136108 -2.190017056465149,16.53057038784027 -2.3891095161437987,24.445207118988037 c-0.49773114919662476,7.012969255447388 -0.6968236088752754,14.326494336128235 -0.7963698387146,21.640019416809082 c-8.262337076663972,-5.009263753890991 -27.275666975975035,-8.014822006225586 -25.78247352838516,16.12982928752899 c7.167328548431397,-7.513895630836487 21.50198564529419,-2.0037055015563965 24.78701122999191,2.204076051712036 c0.7963698387146,1.0018527507781982 1.3936472177505492,2.805187702178955 1.891378366947174,5.109449028968811 c0.49773114919662476,2.4044466018676762 0.8959160685539246,5.3098195791244525 1.1945547580718994,8.515748381614685 c0.1990924596786499,1.6029644012451172 0.2986386895179751,3.306114077568054 0.39818491935730027,5.009263753890991 c0.2986386895179751,5.109449028968811 0.49773114919662476,10.519453883171082 0.5972773790359496,15.328347086906433 l0,0 l0,0 c0,0 0,0 0,0 c0.6968236088752754,16.12982928752899 0.5972773790359496,33.76243770122528 0.49773114919662476,40.17429530620575 c0,0.701296925544739 0.8959160685539246,0.9016674757003784 1.2941009879112244,0.40074110031127924 l2.3891095161437987,-4.007411003112793 c1.3936472177505492,-2.304261326789856 4.7782190322875975,-1.903520226478577 5.674135100841522,0.6011116504669195 c4.579126572608947,14.025938510894775 12.24418627023697,42.178000807762146 16.32558169364929,57.50634789466858 c0.7963698387146,3.0055582523345947 5.076857721805572,3.1057435274124146 5.972773790359497,0.10018527507781994 c1.7918321371078492,-5.81074595451355 3.782756733894348,-11.922047734260559 3.882302963733673,-11.6214919090271 c4.380034112930298,8.916489481925964 38.52439094781876,43.58059465885162 47.583097863197324,52.69745469093323 c1.1945547580718994,1.202223300933838 3.1854793548583986,1.202223300933838 4.380034112930298,0 l9.85507675409317,-9.517601132392883 c1.1945547580718994,-1.202223300933838 3.0859331250190736,-1.202223300933838 4.380034112930298,0 l9.65598429441452,9.417415857315063 c1.2941009879112244,1.202223300933838 3.285025584697723,1.202223300933838 4.479580342769623,-0.20037055015563965 c7.067782318592071,-8.014822006225586 30.16250764131546,-34.06299352645874 43.899887359142305,-48.589858412742615 c1.5927396774292004,-1.703149676322938 4.479580342769623,-1.102038025856018 5.275950181484222,1.202223300933838 c0.5972773790359496,1.703149676322938 1.1945547580718994,3.7068551778793335 1.891378366947174,5.81074595451355 c0.9954622983932492,3.0055582523345947 5.176403951644898,2.905372977256775 5.972773790359497,-0.10018527507781994 c4.280487883090973,-15.729088187217712 13.438741028308868,-41.977630257606506 17.520136451721193,-57.30597734451294 c0.5972773790359496,-2.1038907766342163 3.3845718145370483,-2.5046318769454956 4.479580342769623,-0.6011116504669195 c1.2941009879112244,2.1038907766342163 4.479580342769623,1.202223300933838 4.579126572608947,-1.202223300933838 c0.49773114919662476,-12.322788834571838 -0.1990924596786499,-23.64372491836548 0.1990924596786499,-34.76429045200348 c-0.09954622983932504,0 -0.09954622983932504,0 -0.09954622983932504,0 c0.1990924596786499,-12.823715209960938 0.9954622983932492,-30.055582523345947 4.081395423412323,-33.96280825138092 c3.285025584697723,-4.107596278190613 17.32104399204254,-9.617786407470703 24.587918770313262,-2.4044466018676762 C289.2320560078424,140.82982040458165 270.8160034875673,143.33445228152715 262.454120181064,148.24353076034032 zM168.98021036193785,108.77053237967931 c-3.981849193572998,1.3024085760116577 37.130743730068204,-6.111301779747009 59.230006754398346,-1.8033349514007568 c8.262337076663972,1.6029644012451172 11.945547580718994,7.1131545305252075 13.339194798469544,13.324641585350037 c-0.7963698387146,4.909078478813171 -1.990924596786499,8.415563106536865 -1.990924596786499,8.415563106536865 s-0.8959160685539246,8.615933656692505 -13.637833487987518,9.217045307159424 c-12.741917419433594,0.5009263753890991 -59.628191673755644,-1.703149676322938 -59.628191673755644,-1.703149676322938 s-4.7782190322875975,0.40074110031127924 -6.7691436290740965,-4.508337378501892 C160.3196883659166,118.98943043761695 157.03466278121886,109.57201458030187 168.98021036193785,108.77053237967931 zM78.49268743799149,105.86515940242252 c0,0 1.4931934475898743,-12.623344659805298 14.135564637184142,-12.022233009338379 c10.85053905248642,-2.0037055015563965 53.15768673419952,9.417415857315063 58.83182183504105,13.925753235816956 c4.280487883090973,3.306114077568054 6.868689858913422,3.6066699028015137 7.8641521573066715,7.614080905914307 c-0.39818491935730027,6.311672329902649 -1.0950085282325746,11.922047734260559 -1.3936472177505492,14.927605986595154 c-0.5972773790359496,4.408152103424072 -2.3891095161437987,11.82186245918274 -16.32558169364929,4.307966828346252 c-13.936472177505493,-7.614080905914307 -54.84997264146805,-9.818156957626343 -54.84997264146805,-9.818156957626343 s-8.46142953634262,1.0018527507781982 -10.05416921377182,-11.52130663394928 C77.2981326799196,108.06923545413457 78.49268743799149,105.86515940242252 78.49268743799149,105.86515940242252 zM161.2156044344705,287.1003220181986 c-23.990641391277315,0 -44.2980722784996,-15.628902912139893 -51.465400826931,-37.369107604026794 c17.32104399204254,-12.923900485038757 27.176120746135712,-24.244836568832397 51.465400826931,-24.445207118988037 c22.298355484008788,-0.20037055015563965 34.442995524406435,13.324641585350037 51.365854597091676,24.845948219299316 C205.21503802345217,271.5716043811365 185.0071533660692,287.1003220181986 161.2156044344705,287.1003220181986 zM232.1920663099092,199.43820632510625 l0,29.554656147956848 c-4.180941653251648,-5.91093122959137 -14.334657096862793,-20.537981390953064 -14.235110867023469,-19.936869740486145 c3.882302963733673,13.024085760116577 3.285025584697723,35.76614320278168 0,41.877444982528694 c-15.529211854934692,-17.43223786354065 -32.25297846794128,-32.46002912521362 -56.84089723825455,-32.25965857505798 c-26.77793582677841,0.30055582523345986 -40.316223084926605,12.923900485038757 -56.84089723825455,32.159473299980164 c-4.6786728024482755,-4.608522653579712 -3.0859331250190736,-29.15391504764557 0,-41.77725970745087 l-14.135564637184142,19.936869740486145 c0,-3.306114077568054 -0.09954622983932504,-29.45447087287903 -0.09954622983932504,-29.45447087287903 l-10.551900362968444,12.122418284416199 c0,0 5.8732275605201725,-42.879297733306885 7.167328548431397,-78.14451456069946 c1.1945547580718994,0.30055582523345986 2.090470826625824,0.20037055015563965 2.090470826625824,0.20037055015563965 s40.913500463962556,2.204076051712036 54.84997264146805,9.818156957626343 c13.936472177505493,7.614080905914307 15.827850544452668,0.20037055015563965 16.32558169364929,-4.307966828346252 c0.09954622983932504,-0.8014822006225585 0.1990924596786499,-1.8033349514007568 0.39818491935730027,-3.0055582523345947 c0.09954622983932504,0.30055582523345986 0.1990924596786499,0.5009263753890991 0.2986386895179751,0.8014822006225585 c0.49773114919662476,5.3098195791244525 3.1854793548583986,7.213339805603027 5.176403951644898,7.814451456069946 c0,0 0.09954622983932504,0.10018527507781994 0.09954622983932504,0.10018527507781994 h0.09954622983932504 c1.1945547580718994,0.40074110031127924 2.190017056465149,0.30055582523345986 2.190017056465149,0.30055582523345986 s13.737379717826844,0.6011116504669195 28.37067550420761,1.202223300933838 c0.1990924596786499,4.808893203735352 4.081395423412323,8.615933656692505 8.859614455699921,8.615933656692505 c4.579126572608947,0 8.361883306503296,-3.506484627723694 8.760068225860596,-8.115007281303406 c5.773681330680847,0.10018527507781994 10.651446592807769,0.10018527507781994 13.637833487987518,0 c1.5927396774292004,-0.10018527507781994 3.0859331250190736,-0.30055582523345986 4.280487883090973,-0.6011116504669195 c0.8959160685539246,26.148356795310974 10.651446592807769,65.32079935073853 10.651446592807769,65.32079935073853 L232.1920663099092,199.43820632510625 z" id="svg_21" fill="none" fill-opacity="1"/>
	<path class="st0" d="M205.4141304831308,162.46983982139074 c-8.859614455699921,0 -16.12648923397064,-5.91093122959137 -16.624220383167266,-14.727235436439514 c0,0.40074110031127924 -0.09954622983932504,0.701296925544739 -0.09954622983932504,1.102038025856018 c0,9.317230582237244 7.465967237949371,16.83112621307373 16.723766613006593,16.83112621307373 c9.257799375057221,0 16.723766613006593,-7.513895630836487 16.723766613006593,-16.83112621307373 c0,-0.40074110031127924 0,-0.701296925544739 -0.09954622983932504,-1.102038025856018 C221.54061971710144,156.55890859179937 214.2737449388307,162.46983982139074 205.4141304831308,162.46983982139074 z" id="svg_22" fill="none" fill-opacity="1"/>
	<path class="st0" d="M59.280265079001765,200.6404296260401 C59.280265079001765,200.6404296260401 59.280265079001765,200.7406149011179 59.280265079001765,200.6404296260401 C59.280265079001765,200.7406149011179 59.280265079001765,200.6404296260401 59.280265079001765,200.6404296260401 L59.280265079001765,200.6404296260401 z" id="svg_23" fill="none" fill-opacity="1"/>
</g></g></svg>